<svg width="40" height="46" viewBox="0 0 40 46" fill="none" xmlns="http://www.w3.org/2000/svg"><path d="M39.465 32.4h.75v-.75h-.75v.75zm0 13.6v.75h.75V46h-.75zm-37.04 0h-.75v.75h.75V46zm0-13.6v-.75h-.75v.75h.75zm11.36 0v.75h.75v-.75h-.75zm0-15.92h.75v-2.25l-1.35 1.8.6.45zm-2.24 1.92l.376.65.012-.008.012-.008-.4-.634zm-3.44 1.68l-.289-.692-.01.004.299.688zm-3.76 1.28l-.182-.728.182.728zm-3.44.48h-.75v.75h.75v-.75zm0-13.92v-.75h-.75v.75h.75zm3.04-.8l-.279-.696-.01.004.289.692zm4.08-2l.375.65.009-.006.01-.005-.394-.639zm3.68-2.56l-.469-.586.469.586zm2.08-2.24v-.75h-.463l-.208.415.671.335zm15.52 0h.75v-.75h-.75v.75zm0 32.08h-.75v.75h.75v-.75zm9.41 0V46h1.5V32.4h-1.5zm.75 12.85H2.425v1.5h37.04v-1.5zM3.175 46V32.4h-1.5V46h1.5zm-.75-12.85h11.36v-1.5H2.425v1.5zm12.11-.75V16.48h-1.5V32.4h1.5zm-1.35-16.37c-.405.54-1.07 1.123-2.04 1.736l.8 1.268c1.056-.667 1.885-1.364 2.44-2.104l-1.2-.9zm-2.016 1.72a28.83 28.83 0 01-3.352 1.638l.576 1.384a30.342 30.342 0 003.528-1.723l-.752-1.298zm-3.363 1.642c-1.19.517-2.404.93-3.643 1.24l.364 1.456a24.78 24.78 0 003.877-1.32l-.598-1.376zm-3.643 1.24c-1.237.31-2.321.458-3.258.458v1.5c1.09 0 2.3-.172 3.622-.502l-.364-1.456zM1.655 21.84V7.92h-1.5v13.92h1.5zM.905 8.67c.898 0 2.022-.313 3.328-.858l-.576-1.384C2.403 6.95 1.5 7.17.905 7.17v1.5zm3.319-.854A32.63 32.63 0 008.4 5.77l-.75-1.3a31.135 31.135 0 01-3.984 1.954l.558 1.392zM8.418 5.76a37.361 37.361 0 003.756-2.613l-.938-1.172a35.876 35.876 0 01-3.604 2.507l.786 1.278zm3.756-2.613c1.088-.87 1.887-1.7 2.282-2.49l-1.342-.671c-.245.49-.832 1.153-1.878 1.99l.938 1.17zm1.611-2.076h15.52v-1.5h-15.52v1.5zm14.77-.75V32.4h1.5V.32h-1.5zm.75 32.83h10.16v-1.5h-10.16v1.5z" fill="url(#paint0_linear_11_265)"/><defs><linearGradient id="paint0_linear_11_265" x1="-7" y1="18" x2="46" y2="18" gradientUnits="userSpaceOnUse"><stop stop-color="#C2E59C"/><stop offset="1" stop-color="#64B3F4"/></linearGradient></defs></svg>