<svg width="43" height="47" viewBox="0 0 43 47" fill="none" xmlns="http://www.w3.org/2000/svg"><path d="M.035 47h-.75v.75h.75V47zm.64-7.04l-.734-.154.734.154zm2.08-5.44l.643.386-.643-.386zm3.68-4.4l-.49-.568-.01.009.5.559zm5.68-3.76l.348.664.007-.003-.355-.661zm6.88-3.76l-.368-.654.368.654zm3.76-2.24l.416.624.009-.006-.425-.618zm1.6-1.44l-.636-.398-.008.013-.008.013.652.372zm-.24-3.52l-.633.403.022.034.025.031.586-.468zm-1.6-1.28l-.315.681.023.01.023.009.269-.7zm-5.12-.16l-.182-.728-.012.003.194.725zm-2.4 1.04l.386.643-.386-.643zm-2.48 1.84l.49.567.004-.003-.494-.564zm-2.48 2.56l-.571.486.574.675.57-.678-.573-.483zM.435 8.12l-.543-.517-.466.489.438.514.57-.486zm3.92-3.04l.379.647.007-.004-.386-.643zm5.28-2.4l.237.712.011-.004-.248-.708zm6.24-1.6l.126.74-.126-.74zm16.96 1.2l-.293.69.012.005.28-.695zm6.32 4.88l-.622.42.622-.42zm1.52 12.24l.711.237.003-.008-.714-.229zm-4.4 6.24l-.483-.574-.008.007-.008.006.499.561zm-3.12 2.4l.353.662.032-.018.03-.02-.415-.624zm-2.56 1.36l.335.67.008-.003.008-.004-.351-.663zm-2.64 1.28l.319.679-.32-.679zm-2.72 1.36l.319.679.016-.008.016-.008-.351-.663zm-2.72 1.36l-.351-.663.35 1.413v-.75zm19.68 0h.75v-.75h-.75v.75zm0 13.6v.75h.75V47h-.75zM.785 47c0-2.629.21-4.922.624-6.886l-1.468-.308C-.5 41.895-.715 44.296-.715 47h1.5zm.624-6.886c.411-1.953 1.076-3.687 1.989-5.208l-1.286-.772c-1.008 1.68-1.73 3.572-2.171 5.672l1.468.309zm1.989-5.208c.918-1.53 2.095-2.94 3.536-4.226l-.999-1.12c-1.545 1.38-2.822 2.905-3.823 4.574l1.286.772zm3.526-4.218c1.495-1.288 3.338-2.51 5.539-3.664l-.696-1.328c-2.28 1.194-4.223 2.478-5.822 3.856l.98 1.136zm5.545-3.667a421.697 421.697 0 006.893-3.767l-.735-1.308c-1.7.957-3.989 2.208-6.867 3.753l.71 1.322zm6.893-3.767c1.71-.962 2.984-1.72 3.809-2.27l-.832-1.248c-.776.517-2.009 1.252-3.712 2.21l.735 1.308zm3.818-2.276c.85-.585 1.519-1.148 1.826-1.686l-1.303-.744c-.119.209-.517.605-1.373 1.194l.85 1.236zm1.81-1.66a3.27 3.27 0 00.515-1.758h-1.5c0 .332-.09.649-.286.963l1.272.794zm.515-1.758c0-1.021-.241-1.924-.805-2.628l-1.171.936c.29.363.476.9.476 1.692h1.5zm-.758-2.563c-.465-.731-1.13-1.257-1.963-1.577l-.538 1.4c.554.213.955.541 1.236.983l1.265-.806zM22.83 13.44c-.819-.378-1.786-.549-2.874-.549v1.5c.938 0 1.677.149 2.245.411l.629-1.362zm-2.874-.549c-.917 0-1.831.115-2.742.342l.364 1.456a9.77 9.77 0 012.378-.298v-1.5zm-2.754.345c-.875.234-1.74.61-2.592 1.122l.772 1.286a8.61 8.61 0 012.207-.958l-.387-1.45zm-2.592 1.122c-.846.507-1.708 1.149-2.588 1.919l.988 1.128c.826-.723 1.617-1.308 2.372-1.76l-.772-1.287zm-2.585 1.916c-.836.725-1.69 1.608-2.563 2.644l1.147.966c.834-.99 1.634-1.814 2.398-2.476l-.982-1.134zm-1.418 2.64l-9.6-11.28-1.142.973 9.6 11.28 1.142-.972zM.978 8.638c1.011-1.062 2.26-2.033 3.756-2.91l-.759-1.294c-1.597.937-2.962 1.992-4.083 3.17L.978 8.637zM4.74 5.723c1.549-.93 3.258-1.707 5.13-2.331l-.473-1.424c-1.968.656-3.778 1.478-5.43 2.469l.773 1.286zm5.142-2.335A37.423 37.423 0 0116 1.819L15.748.341c-2.225.38-4.346.923-6.362 1.631l.497 1.416zM16 1.819a39.112 39.112 0 016.594-.549v-1.5c-2.334 0-4.617.19-6.846.57L16 1.82zm6.594-.549c3.985 0 7.293.578 9.947 1.7l.585-1.38C30.235.365 26.716-.23 22.595-.23v1.5zm9.959 1.705c2.658 1.074 4.636 2.614 5.98 4.605l1.242-.84c-1.536-2.276-3.772-3.989-6.66-5.155l-.562 1.39zm5.98 4.605c1.341 1.988 2.03 4.422 2.03 7.34h1.5c0-3.162-.75-5.901-2.288-8.18l-1.243.84zm2.03 7.34c0 1.59-.204 3.004-.604 4.251l1.429.458c.454-1.42.676-2.992.676-4.709h-1.5zm-.6 4.243a11.574 11.574 0 01-1.653 3.232l1.208.89a13.071 13.071 0 001.867-3.648l-1.423-.474zm-1.653 3.232a15.557 15.557 0 01-2.52 2.671l.967 1.148a17.057 17.057 0 002.76-2.93l-1.207-.889zm-2.535 2.684a27.644 27.644 0 01-3.037 2.337l.832 1.248a29.142 29.142 0 003.202-2.463l-.997-1.122zm-2.974 2.3l-2.558 1.358.702 1.326c.907-.48 1.76-.934 2.562-1.361l-.706-1.324zm-2.543 1.35c-.848.424-1.722.848-2.624 1.272l.639 1.358c.912-.43 1.797-.859 2.656-1.288l-.67-1.342zm-2.624 1.272a65.38 65.38 0 00-2.751 1.376l.702 1.326a64.016 64.016 0 012.688-1.344L27.635 30zm-2.72 1.36a65.38 65.38 0 00-2.751 1.376l.702 1.326a64.016 64.016 0 012.688-1.344l-.639-1.358zm-2.4 2.789h19.68v-1.5h-19.68v1.5zm18.93-.75V47h1.5V33.4h-1.5zm.75 12.85H.035v1.5h42.16v-1.5z" fill="url(#paint0_linear_11_267)"/><defs><linearGradient id="paint0_linear_11_267" x1="-5" y1="19" x2="48" y2="19" gradientUnits="userSpaceOnUse"><stop stop-color="#C2E59C"/><stop offset="1" stop-color="#64B3F4"/></linearGradient></defs></svg>