<svg width="44" height="59" viewBox="0 0 44 59" fill="none" xmlns="http://www.w3.org/2000/svg"><path d="M31.898 28.04l-.14-.737.014 1.476.126-.739zm5.76 2.64l-.482.575.01.008.01.008.462-.591zm4 5.04l-.678.321.678-.321zm-1.36 15.36l-.592-.46-.006.007-.005.007.603.446zm-7.84 5.68l.273.699-.273-.699zm-23.04.4l-.237.712.237-.712zm-8.56-4.8l-.614-.431-.393.559.52.443.487-.571zm7.76-11.04l.453-.598-.62-.47-.447.637.614.431zm4.88 2.64l-.244.71.007.002.237-.712zm11.92-.32l.41.628.006-.004-.416-.624zm-.48-8.32l-.37.652.008.005.009.005.353-.662zm-10.32-1.36h-.75v.75h.75v-.75zm0-10.56v-.75h-.75v.75h.75zm8.96-1.52l.41.627-.41-.627zm1.68-6.16l-.648.378.019.033.022.03.607-.441zm-1.76-1.44l-.296.69.009.003.008.003.279-.696zm-8 .96l.36.658.008-.005.008-.004-.376-.649zm-4.32 4.16l-.571.486.648.762.55-.836-.627-.412zm-9.6-11.28l-.56-.498-.434.487.423.497.57-.486zm5.12-3.76l-.329-.674-.007.003.336.671zm7.36-2.48l.158.733.014-.003-.172-.73zm18.72.8l-.279.696.005.002.274-.698zm6.96 4.96l-.593.46.006.007.587-.467zm1.12 13.28l.674.328-.674-.328zm-3.68 4.72l.466.588.006-.005.006-.005-.478-.578zm-5.406 3.14c2.059.35 3.855 1.176 5.404 2.475l.964-1.15c-1.758-1.474-3.802-2.41-6.116-2.804l-.252 1.478zm5.424 2.491c1.611 1.259 2.872 2.845 3.784 4.77l1.356-.642c-1.009-2.129-2.414-3.902-4.216-5.31l-.924 1.182zm3.784 4.77c.908 1.917 1.368 4.046 1.368 6.399h1.5c0-2.554-.5-4.905-1.512-7.041l-1.356.642zm1.368 6.399c0 3.212-.889 5.925-2.642 8.18l1.184.92c1.98-2.545 2.958-5.592 2.958-9.1h-1.5zm-2.653 8.194c-1.714 2.319-4.202 4.135-7.51 5.427l.546 1.398c3.518-1.375 6.257-3.345 8.17-5.933l-1.206-.892zm-7.51 5.427c-3.306 1.292-7.262 1.949-11.887 1.949v1.5c4.762 0 8.912-.676 12.433-2.051l-.546-1.398zM20.298 58.01c-3.989 0-7.533-.525-10.643-1.561l-.474 1.422c3.29 1.097 6.999 1.639 11.117 1.639v-1.5zM9.655 56.449c-3.111-1.038-5.88-2.59-8.311-4.66L.372 52.93c2.581 2.197 5.52 3.844 8.809 4.94l.474-1.422zM1.471 52.79l7.76-11.04-1.227-.862-7.76 11.04 1.227.862zm6.694-10.873c1.605 1.217 3.302 2.137 5.089 2.751l.488-1.418c-1.626-.56-3.183-1.4-4.67-2.529l-.907 1.195zm5.096 2.754c1.85.616 3.932.918 6.237.918v-1.5c-2.176 0-4.094-.285-5.763-.842l-.474 1.424zm6.237.918c2.759 0 4.915-.4 6.33-1.322l-.82-1.256c-1.039.677-2.83 1.078-5.51 1.078v1.5zm6.336-1.326c1.528-1.019 2.254-2.612 2.254-4.624h-1.5c0 1.614-.555 2.688-1.586 3.376l.832 1.248zm2.254-4.624c0-1.112-.22-2.11-.695-2.964-.477-.86-1.188-1.53-2.102-2.018l-.706 1.324c.686.366 1.174.841 1.497 1.422.326.586.506 1.321.506 2.236h1.5zm-2.78-4.973c-1.778-1.007-4.557-1.457-8.21-1.457v1.5c3.6 0 6.047.456 7.47 1.262l.74-1.305zm-8.21-1.457h-2.48v1.5h2.48v-1.5zm-1.73.75V23.4h-1.5v10.56h1.5zm-.75-9.81h2.8v-1.5h-2.8v1.5zm2.8 0c2.652 0 4.863-.524 6.57-1.643l-.821-1.254c-1.386.908-3.281 1.397-5.75 1.397v1.5zm6.57-1.643c1.73-1.132 2.66-2.687 2.66-4.627h-1.5c0 1.367-.617 2.479-1.981 3.373l.822 1.254zm2.66-4.627c0-.983-.248-1.865-.784-2.601l-1.213.882c.318.437.497.995.497 1.719h1.5zm-.742-2.538c-.471-.807-1.2-1.387-2.13-1.758l-.557 1.392c.671.269 1.115.649 1.391 1.122l1.296-.756zm-2.113-1.751c-.868-.372-1.91-.541-3.095-.541v1.5c1.054 0 1.88.151 2.504.42l.591-1.38zm-3.095-.541c-1.953 0-3.816.519-5.577 1.541l.753 1.298c1.546-.898 3.15-1.339 4.824-1.339v-1.5zm-5.56 1.532c-1.78.976-3.305 2.456-4.587 4.406l1.254.824c1.171-1.783 2.526-3.077 4.053-3.914l-.72-1.316zm-3.389 4.332l-9.6-11.28-1.142.972 9.6 11.28 1.142-.972zM2.139 8.618c1.203-1.354 2.827-2.553 4.894-3.587l-.67-1.342c-2.2 1.1-3.99 2.407-5.346 3.933l1.121.996zm4.888-3.584c2.125-1.037 4.52-1.845 7.189-2.42L13.9 1.146c-2.771.597-5.283 1.442-7.531 2.539l.658 1.348zM14.23 2.61a35.802 35.802 0 018.228-.94V.17c-2.936 0-5.794.326-8.572.98l.344 1.46zm8.228-.94c3.874 0 7.216.576 10.041 1.706l.557-1.392C30.016.767 26.477.17 22.458.17v1.5zm10.046 1.708c2.884 1.133 5.085 2.714 6.641 4.721l1.186-.918c-1.75-2.26-4.19-3.986-7.279-5.2l-.548 1.397zm6.647 4.729c1.54 1.938 2.317 4.224 2.317 6.893h1.5c0-2.985-.877-5.605-2.643-7.827l-1.174.934zM41.468 15a12.63 12.63 0 01-1.285 5.592l1.35.656A14.13 14.13 0 0042.967 15h-1.5zm-1.285 5.592c-.861 1.774-2.022 3.26-3.483 4.47l.956 1.156c1.632-1.35 2.925-3.01 3.876-4.97l-1.349-.656zm-3.471 4.46a11.19 11.19 0 01-4.954 2.251l.28 1.474a12.69 12.69 0 005.606-2.55l-.932-1.175z" fill="url(#paint0_linear_11_271)"/><defs><linearGradient id="paint0_linear_11_271" x1="-4" y1="19" x2="49" y2="19" gradientUnits="userSpaceOnUse"><stop stop-color="#C2E59C"/><stop offset="1" stop-color="#64B3F4"/></linearGradient></defs></svg>