<svg width="44" height="57" viewBox="0 0 44 57" fill="none" xmlns="http://www.w3.org/2000/svg"><path d="M20.823 56.16h-.75v.75h.75v-.75zm0-9.92h.75v-.75h-.75v.75zm-20.56 0h-.75v.75h.75v-.75zm0-13.6l-.59-.463-.16.204v.259h.75zM25.622.32v-.75h-.365l-.226.287.59.463zm10.4 0h.75v-.75h-.75v.75zm0 32.32h-.75v.75h.75v-.75zm7.04 0h.75v-.75h-.75v.75zm0 13.6v.75h.75v-.75h-.75zm-7.04 0v-.75h-.75v.75h.75zm0 9.92v.75h.75v-.75h-.75zm-20.8-23.52l-.596-.456-.925 1.206h1.52v-.75zm7.36 0v.75h.75v-.75h-.75zm0-9.6h.75v-2.21l-1.346 1.754.596.456zm-1.01 33.12v-9.92h-1.5v9.92h1.5zm-.75-10.67H.263v1.5h20.56v-1.5zm-19.81.75v-13.6h-1.5v13.6h1.5zm-.16-13.137L26.213.783l-1.18-.926-25.36 32.32 1.18.926zM25.623 1.07h10.4v-1.5h-10.4v1.5zm9.65-.75v32.32h1.5V.32h-1.5zm.75 33.07h7.04v-1.5h-7.04v1.5zm6.29-.75v13.6h1.5v-13.6h-1.5zm.75 12.85h-7.04v1.5h7.04v-1.5zm-7.79.75v9.92h1.5v-9.92h-1.5zm.75 9.17h-15.2v1.5h15.2v-1.5zm-20.8-22.02h7.36v-1.5h-7.36v1.5zm8.11-.75v-9.6h-1.5v9.6h1.5zm-1.346-10.056l-7.36 9.6 1.19.912 7.36-9.6-1.19-.912z" fill="url(#paint0_linear_11_266)"/><defs><linearGradient id="paint0_linear_11_266" x1="-4" y1="18" x2="49" y2="18" gradientUnits="userSpaceOnUse"><stop stop-color="#C2E59C"/><stop offset="1" stop-color="#64B3F4"/></linearGradient></defs></svg>