<svg width="42" height="58" viewBox="0 0 42 58" fill="none" xmlns="http://www.w3.org/2000/svg"><path d="M8.64 55.52l.322-.677-.005-.002-.318.679zM.96 48.96l-.568-.491-.367.424.303.472.631-.405zm8.32-9.6l.547-.512-.57-.609-.545.63.567.491zm5.12 3.92l-.344.667.011.006.012.005.32-.678zm8.96.64l-.336-.67-.008.003-.008.004.351.663zm2.16-2.08l-.647-.38-.009.014-.008.015.663.351zm.08-6.16l-.68.32.012.024.013.024.654-.368zm-1.92-2.08l-.387.643.01.005.008.006.368-.654zm-6 .08l.35.663.007-.004.006-.003-.364-.656zm-2.08 2v.75h.438l.215-.382-.654-.368zm-13.04 0l-.738-.14-.169.89h.906v-.75zM9.28.32v-.75h-.622l-.116.61.737.14zm28.48 0h.75v-.75h-.75v.75zm0 13.84v.75h.75v-.75h-.75zm-17.52 0v-.75h-.651l-.092.644.742.106zm-.88 6.16l-.743-.106-.148 1.03 1.024-.186-.134-.738zm.88-.16l.133.738.032-.006.031-.008-.197-.724zm12.56 2.16l-.37.653.007.004.007.004.355-.661zm6.72 6.48l.649-.375-.65.375zm-.4 19.76l.632.403-.633-.403zm-7.76 6.88l-.336-.67-.005.001.34.669zm-11.44 1.73c-4.063 0-7.71-.78-10.958-2.327l-.645 1.354c3.472 1.653 7.344 2.473 11.602 2.473v-1.5zM8.956 54.84c-3.19-1.491-5.636-3.588-7.367-6.285l-1.262.81c1.896 2.956 4.57 5.233 7.993 6.834l.636-1.358zm-7.431-5.389l8.32-9.6-1.134-.982-8.32 9.6 1.134.982zm7.205-9.579c1.601 1.712 3.376 3.073 5.325 4.075l.686-1.334c-1.784-.918-3.423-2.17-4.915-3.765L8.73 39.872zm5.348 4.086c2.003.946 3.979 1.432 5.92 1.432v-1.5c-1.685 0-3.443-.42-5.28-1.288l-.64 1.356zm5.92 1.432c1.42 0 2.669-.255 3.711-.807l-.702-1.326c-.77.408-1.762.633-3.009.633v1.5zm3.696-.8c1.092-.546 1.93-1.348 2.487-2.4l-1.326-.7c-.403.761-1.005 1.346-1.832 1.76l.67 1.34zm2.47-2.37c.61-1.035.904-2.209.904-3.5h-1.5c0 1.055-.238 1.961-.696 2.74l1.293.76zm.904-3.5c0-1.277-.262-2.422-.816-3.408l-1.308.736c.406.72.624 1.602.624 2.672h1.5zm-.791-3.36a5.293 5.293 0 00-2.231-2.414l-.736 1.308a3.794 3.794 0 011.61 1.745l1.357-.638zm-2.213-2.403c-.938-.563-2.037-.827-3.266-.827v1.5c1.012 0 1.832.216 2.494.613l.772-1.286zm-3.266-.827a7.07 7.07 0 00-3.484.894l.728 1.312a5.57 5.57 0 012.756-.706v-1.5zm-3.47.887c-1.028.544-1.83 1.31-2.384 2.295l1.308.736c.406-.722.991-1.29 1.777-1.705l-.702-1.326zm-1.73 1.913H2.56v1.5H15.6v-1.5zm-12.303.89L10.016.46 8.542.18l-6.72 35.36 1.474.28zM9.279 1.07h28.48v-1.5H9.28v1.5zM37.01.32v13.84h1.5V.32h-1.5zm.75 13.09H20.24v1.5h17.52v-1.5zm-18.262.644l-.88 6.16 1.485.212.88-6.16-1.485-.212zm-.138 6.266l.134.738h.004l.01-.003.041-.007.165-.03.059-.01.065-.013.035-.006.01-.002h.004l.005-.001.009-.002.01-.002.078-.014.021-.004h.005l.003-.001h.003l.01-.003.022-.004.022-.004.093-.017.206-.037-.268-1.476-.107.02-.05.009-.025.004-.012.002-.006.002H19.9a202.892 202.892 0 00-.22.04l-.019.004-.02.003-.036.007-.01.002h-.004l-.004.001-.009.002-.008.002-.017.003-.017.003h-.004l-.004.001-.008.002h-.004l-.004.001-.008.002-.03.005c-.005 0-.009.002-.014.003a.505.505 0 00-.014.002l-.096.018-.02.003h-.003l-.002.001h-.004l-.01.003a.835.835 0 01-.015.002l-.015.003-.024.005a1.062 1.062 0 00-.017.003h-.006l-.003.001h-.004v.001h-.001l.134.738zm1.077.564c.485-.133 1.333-.214 2.603-.214v-1.5c-1.29 0-2.308.078-2.997.266l.394 1.448zm2.603-.214c3.568 0 6.69.775 9.39 2.303l.74-1.306c-2.954-1.672-6.338-2.497-10.13-2.497v1.5zm9.405 2.31c2.76 1.483 4.897 3.545 6.425 6.195l1.3-.75c-1.672-2.897-4.015-5.155-7.015-6.766l-.71 1.322zm6.425 6.195c1.526 2.645 2.3 5.712 2.3 9.225h1.5c0-3.74-.826-7.073-2.5-9.975l-1.3.75zm2.3 9.225c0 3.713-.9 6.957-2.683 9.757l1.266.806c1.95-3.066 2.917-6.596 2.917-10.563h-1.5zm-2.683 9.757c-1.789 2.812-4.27 5.016-7.462 6.612l.67 1.342c3.42-1.71 6.113-4.093 8.058-7.148l-1.266-.806zm-7.467 6.614c-3.129 1.59-6.821 2.399-11.1 2.399v1.5c4.468 0 8.402-.845 11.78-2.561l-.68-1.338z" fill="url(#paint0_linear_11_268)"/><defs><linearGradient id="paint0_linear_11_268" x1="-5" y1="18" x2="48" y2="18" gradientUnits="userSpaceOnUse"><stop stop-color="#C2E59C"/><stop offset="1" stop-color="#64B3F4"/></linearGradient></defs></svg>