<svg width="43" height="59" viewBox="0 0 43 59" fill="none" xmlns="http://www.w3.org/2000/svg"><path d="M40.245 29.28l-.642.388.004.007.005.007.633-.402zm-7.12-6.64l-.363.656.007.004.007.004.349-.664zm-13.68-2.16l.111.742.018-.003.018-.004-.147-.735zm-2.88.88l.3.687.018-.008.017-.008-.335-.671zm-2.32 1.52l-.749-.042-.103 1.849 1.36-1.256-.508-.551zm1.2-4.88l.665.346-.665-.346zm2.96-3.04l.357.66.01-.006.01-.006-.377-.648zm14.4 3.2l-.53.53.571.572.528-.613-.569-.489zm8.4-9.76l.569.49.453-.528-.492-.492-.53.53zm-8.32-5.68l-.301.687.01.004.291-.691zm-22 1.6l.431.614-.431-.614zm-7.92 10.4l-.694-.286-.001.005.695.281zm-.24 31.2l-.697.277.003.008.694-.285zm7.28 9.6l-.435.611.006.004.006.004.423-.619zm22.48.64l.361.657.009-.005-.37-.652zm7.6-7.2l.636.398.003-.006-.639-.392zm-21.84-3.84l-.424.619.019.013.02.011.385-.643zm-2.56-9.76l-.634-.4-.008.012-.007.012.649.376zm2.48-2.4l-.361-.657-.008.004-.007.004.376.649zm6.88 0l.376-.65-.376.65zm2.4 2.4l-.65.376.008.012.008.013.634-.401zm0 7.04l-.651-.372.651.372zm-2.48 2.72l.4.634.012-.007.012-.008-.424-.619zm18.67-6.32c0-3.703-.914-7.018-2.757-9.922l-1.266.804c1.677 2.643 2.523 5.674 2.523 9.118h1.5zm-2.748-9.908c-1.78-2.948-4.257-5.255-7.413-6.916l-.698 1.328c2.924 1.539 5.194 3.659 6.827 6.364l1.284-.776zm-7.399-6.908c-3.11-1.722-6.652-2.574-10.603-2.574v1.5c3.73 0 7.015.802 9.877 2.386l.726-1.312zM22.885 19.41c-1.27 0-2.466.11-3.587.335l.294 1.47a16.788 16.788 0 013.293-.305v-1.5zm-3.551.328c-1.135.17-2.172.485-3.104.951l.67 1.342c.775-.387 1.658-.66 2.656-.81l-.222-1.483zm-3.07.935c-.93.407-1.774.96-2.528 1.656l1.018 1.102a7.562 7.562 0 012.112-1.384l-.602-1.374zm-1.27 2.249c.102-1.843.484-3.36 1.116-4.576l-1.33-.692c-.755 1.45-1.173 3.187-1.284 5.184l1.498.084zm1.116-4.576c.627-1.205 1.508-2.107 2.652-2.726l-.714-1.32c-1.416.768-2.508 1.892-3.268 3.354l1.33.692zm2.673-2.738c1.149-.67 2.508-1.018 4.102-1.018v-1.5c-1.819 0-3.447.399-4.858 1.222l.756 1.296zm4.102-1.018c1.707 0 3.365.35 4.98 1.057l.6-1.374a13.794 13.794 0 00-5.58-1.183v1.5zm4.98 1.057c1.616.707 3.086 1.72 4.41 3.043l1.06-1.06c-1.449-1.45-3.073-2.571-4.87-3.357l-.6 1.374zm5.509 3.002l8.4-9.76-1.138-.978-8.4 9.76 1.138.978zm8.361-10.78c-2.57-2.57-5.423-4.52-8.559-5.84l-.582 1.382c2.944 1.24 5.637 3.076 8.08 5.52l1.061-1.061zm-8.549-5.836C30.047.656 26.691-.03 23.125-.03v1.5c3.368 0 6.518.647 9.459 1.937l.602-1.374zM23.125-.03c-4.879 0-9.115 1.236-12.671 3.736l.862 1.228c3.27-2.3 7.195-3.464 11.809-3.464v-1.5zM10.454 3.706C6.904 6.202 4.183 9.793 2.27 14.434l1.388.572c1.821-4.425 4.38-7.768 7.657-10.072l-.862-1.228zM2.27 14.44C.41 19.029-.505 24.49-.505 30.8h1.5c0-6.17.897-11.43 2.665-15.799l-1.39-.562zM-.505 30.8c0 5.986.835 11.125 2.533 15.397l1.394-.554C1.813 41.594.995 36.654.995 30.8h-1.5zm2.536 15.405c1.752 4.269 4.26 7.591 7.54 9.926l.869-1.222c-3.013-2.145-5.36-5.223-7.021-9.274l-1.388.57zm7.55 9.934c3.346 2.286 7.366 3.411 12.024 3.411v-1.5c-4.409 0-8.122-1.061-11.177-3.15l-.846 1.24zm12.024 3.411c4.165 0 7.919-.905 11.241-2.733l-.722-1.314c-3.078 1.692-6.578 2.547-10.519 2.547v1.5zm11.25-2.737c3.303-1.873 5.93-4.358 7.866-7.456l-1.272-.794c-1.797 2.876-4.237 5.19-7.334 6.944l.74 1.306zm7.87-7.46c1.942-3.164 2.91-6.688 2.91-10.553h-1.5c0 3.602-.898 6.851-2.69 9.768l1.28.784zm-19.12-4.023c-1.03 0-2.017-.279-2.974-.853l-.772 1.286c1.176.706 2.428 1.067 3.746 1.067v-1.5zm-2.936-.829c-.916-.626-1.666-1.446-2.253-2.473l-1.302.744a8.88 8.88 0 002.707 2.967l.848-1.238zm-2.253-2.473a6.389 6.389 0 01-.861-3.228h-1.5c0 1.412.355 2.74 1.059 3.972l1.302-.744zm-.861-3.228c0-1.16.265-2.176.78-3.064l-1.3-.752c-.658 1.138-.98 2.417-.98 3.816h1.5zm.764-3.04a6.368 6.368 0 012.222-2.15l-.752-1.3a7.867 7.867 0 00-2.738 2.65l1.268.8zm2.207-2.143a6.276 6.276 0 013.079-.787v-1.5a7.776 7.776 0 00-3.801.973l.722 1.314zm3.079-.787c1.16 0 2.176.265 3.064.78l.752-1.3c-1.138-.658-2.417-.98-3.816-.98v1.5zm3.064.78a5.727 5.727 0 012.127 2.126l1.298-.752a7.229 7.229 0 00-2.673-2.673l-.752 1.298zm2.142 2.15c.559.886.844 1.892.844 3.04h1.5c0-1.412-.355-2.7-1.076-3.84l-1.268.8zm.844 3.04c0 1.148-.285 2.22-.861 3.228l1.302.744a7.889 7.889 0 001.059-3.972h-1.5zm-.861 3.228c-.587 1.027-1.338 1.847-2.253 2.473l.848 1.238c1.111-.76 2.014-1.754 2.707-2.967l-1.302-.744zm-2.23 2.458a5.416 5.416 0 01-2.959.844v1.5a6.915 6.915 0 003.76-1.076l-.8-1.268z" fill="url(#paint0_linear_11_272)"/><defs><linearGradient id="paint0_linear_11_272" x1="-5" y1="30" x2="48" y2="30" gradientUnits="userSpaceOnUse"><stop stop-color="#C2E59C"/><stop offset="1" stop-color="#64B3F4"/></linearGradient></defs></svg>