<svg width="64" height="82" viewBox="0 0 64 82" fill="none" xmlns="http://www.w3.org/2000/svg"><path d="M10.654.309C5.288.309.922 4.672.922 10.039v61.535c0 5.366 4.366 9.733 9.732 9.733H54.19c5.367 0 9.732-4.366 9.733-9.73v-50.02a1 1 0 00-.293-.707L43.383.602a.996.996 0 00-.707-.293H10.654zm0 1.998h31.268v10.486c0 5.247 4.268 9.514 9.514 9.514h10.486v49.267c0 4.263-3.468 7.733-7.732 7.733H10.654c-4.263 0-7.732-3.469-7.732-7.733V10.04c0-4.263 3.468-7.732 7.732-7.732zm32.268.662L61.26 21.307h-9.825c-4.696 0-8.513-3.819-8.513-8.514V2.969zM14.578 7.266a7.566 7.566 0 00-4.465 1.45 7.725 7.725 0 00-3.191 6.24v52.661c0 4.24 3.433 7.69 7.656 7.69h35.686c4.223 0 7.658-3.45 7.658-7.69v-17.81a.5.5 0 00-1 0v17.812c0 3.688-2.987 6.69-6.658 6.69H14.578c-3.67 0-6.656-3.002-6.656-6.69V14.955a6.726 6.726 0 012.777-5.428 6.576 6.576 0 013.88-1.261.5.5 0 000-1zm-2.156 22.04a.5.5 0 000 1h21a.5.5 0 100-1h-21zm24 0a.5.5 0 00-.5.5v14a.5.5 0 001 0v-13.5h15v15h-11.5a.5.5 0 000 1h12a.5.5 0 00.5-.5v-16a.5.5 0 00-.5-.5h-16zm-24 7a.5.5 0 000 1h21a.5.5 0 100-1h-21zm45 0a.5.5 0 00-.5.5v3a.5.5 0 001 0v-3a.5.5 0 00-.5-.5zm0 5a.5.5 0 00-.5.5v6a.5.5 0 001 0v-6a.5.5 0 00-.5-.5zm-45 2a.5.5 0 000 1h21a.5.5 0 100-1h-21zm0 7a.5.5 0 000 1h13a.5.5 0 100-1h-13zm16 0a.5.5 0 000 1h24a.5.5 0 100-1h-24zm-16 7a.5.5 0 000 1h17a.5.5 0 100-1h-17zm20 0a.5.5 0 000 1h11a.5.5 0 100-1h-11zm13 0a.5.5 0 000 1h8a.5.5 0 100-1h-8zm-33 7a.5.5 0 000 1h24a.5.5 0 100-1h-24zm26 0a.5.5 0 000 1h14a.5.5 0 100-1h-14z" fill="url(#paint0_linear_11_247)"/><defs><linearGradient id="paint0_linear_11_247" x1=".922" y1="40.808" x2="63.922" y2="40.808" gradientUnits="userSpaceOnUse"><stop stop-color="#C2E59C"/><stop offset="1" stop-color="#64B3F4"/></linearGradient></defs></svg>