<svg width="78" height="50" viewBox="0 0 78 50" fill="none" xmlns="http://www.w3.org/2000/svg"><path d="M21.582 0a5.422 5.422 0 00-4.719 2.758L1.131 30.508c-.013.022-.013.045-.024.068A4.464 4.464 0 000 33.5C0 35.981 2.019 38 4.5 38h.803C6.697 44.839 12.756 50 20 50c8.271 0 15-6.729 15-15 0-.338-.029-.668-.05-1H35c0-2.206 1.794-4 4-4s4 1.794 4 4h.05c-.021.332-.05.662-.05 1 0 8.271 6.729 15 15 15 7.244 0 13.303-5.161 14.697-12h.803c2.481 0 4.5-2.019 4.5-4.5a4.464 4.464 0 00-1.107-2.924c-.011-.023-.01-.046-.024-.068L61.14 2.762A5.424 5.424 0 0056.418 0 5.425 5.425 0 0051 5.418V7a1 1 0 102 0V5.418A3.423 3.423 0 0156.418 2a3.42 3.42 0 012.979 1.744l14.331 25.28c-.076-.005-.149-.024-.228-.024H72c-.084 0-.16.029-.238.049C69.452 23.732 64.156 20 58 20c-5.421 0-10.166 2.902-12.8 7.223C44.026 25.31 41.69 24 39 24c-2.69 0-5.027 1.31-6.2 3.223C30.167 22.902 25.422 20 20 20c-6.156 0-11.453 3.732-13.762 9.049C6.16 29.029 6.084 29 6 29H4.5c-.079 0-.152.02-.229.023L18.605 3.74A3.418 3.418 0 0121.582 2 3.423 3.423 0 0125 5.418V7a1 1 0 102 0V5.418A5.425 5.425 0 0021.582 0zM20 22c7.168 0 13 5.832 13 13s-5.832 13-13 13S7 42.168 7 35s5.832-13 13-13zm38 0c7.168 0 13 5.832 13 13s-5.832 13-13 13-13-5.832-13-13 5.832-13 13-13zm-38 3c-5.514 0-10 4.486-10 10s4.486 10 10 10 10-4.486 10-10-4.486-10-10-10zm38 0c-5.514 0-10 4.486-10 10s4.486 10 10 10 10-4.486 10-10-4.486-10-10-10zm-38 1c4.962 0 9 4.037 9 9s-4.038 9-9 9-9-4.037-9-9 4.038-9 9-9zm19 0c2.648 0 4.802 1.66 4.969 3.746-.075.2-.154.397-.221.6A5.985 5.985 0 0039 28c-1.933 0-3.65.922-4.748 2.346-.066-.203-.146-.4-.22-.6C34.197 27.66 36.351 26 39 26zm19 0c4.962 0 9 4.037 9 9s-4.038 9-9 9-9-4.037-9-9 4.038-9 9-9zM4.5 31h1.059A14.925 14.925 0 005 35c0 .338.029.668.05 1H4.5A2.503 2.503 0 012 33.5C2 32.121 3.122 31 4.5 31zm67.941 0H73.5c1.378 0 2.5 1.121 2.5 2.5S74.878 36 73.5 36h-.55c.021-.332.05-.662.05-1 0-1.387-.205-2.724-.559-4z" fill="url(#paint0_linear_11_258)"/><defs><linearGradient id="paint0_linear_11_258" x1="0" y1="25" x2="78" y2="25" gradientUnits="userSpaceOnUse"><stop stop-color="#C2E59C"/><stop offset="1" stop-color="#64B3F4"/></linearGradient></defs></svg>