<svg width="20" height="20" viewBox="0 0 20 20" fill="none" xmlns="http://www.w3.org/2000/svg"><path d="M19.598 8.998c0 3.63-1.764 5.878-4.636 5.878-1.487 0-2.55-.646-2.86-1.74h-.22c-.472 1.164-1.371 1.752-2.698 1.752-2.398 0-3.99-1.936-3.99-4.864 0-2.8 1.534-4.69 3.817-4.69 1.246 0 2.226.6 2.688 1.637h.219V5.61h2.652v5.854c0 .819.368 1.303.992 1.303 1.014 0 1.66-1.348 1.66-3.492 0-4.172-2.732-6.846-6.988-6.846-4.44 0-7.46 3.112-7.46 7.64 0 4.587 3.044 7.458 7.933 7.458 1.061 0 2.156-.139 2.756-.323v2.051c-.83.218-1.914.344-3.01.344-6.03 0-10.055-3.837-10.055-9.588C.398 4.33 4.434.4 10.268.4c5.56 0 9.33 3.481 9.33 8.598zm-11.37 1.106c0 1.499.622 2.397 1.671 2.397 1.061 0 1.707-.91 1.707-2.397 0-1.486-.658-2.396-1.707-2.396-1.048 0-1.672.898-1.672 2.396z" fill="#fff"/></svg>