<svg width="28" height="31" viewBox="0 0 28 31" fill="none" xmlns="http://www.w3.org/2000/svg"><path d="M14 .4c-2.172 0-4.123.686-5.457 1.803a.4.4 0 00-.12.44l2.1 5.919C5.821 10.043 2.4 14.413 2.4 19.6v7.243s.006-.005-.006-.002a2.006 2.006 0 00-1.585 2.154c.1 1.049 1.028 1.805 2.059 1.805h22.264c1.03 0 1.959-.756 2.058-1.805a2.007 2.007 0 00-1.584-2.154c-.008 0-.006.002-.006.002v-7.01c0-5.038-3.166-9.421-7.656-11.088l3.45-.363h.004c.338-.042.67-.188.933-.45a1.603 1.603 0 000-2.263A1.595 1.595 0 0021.2 5.2c-.41 0-.82.156-1.131.468l-1.415 1.404-1.04 1.032 1.962-5.46a.4.4 0 00-.12-.442C18.124 1.086 16.173.4 14 .4zm0 .8c1.888 0 3.56.584 4.72 1.465l-2.157 6a.399.399 0 00-.022.135H15.8a.2.2 0 100 .4h1.079c.036.01.071.024.108.035.087.175.454.94.87 2.516.47 1.784.943 4.467.943 8.049a.2.2 0 00.2.203.2.2 0 00.2-.203c0-3.618-.477-6.335-.956-8.15a17.98 17.98 0 00-.649-2.008c.68.461 2.018 1.523 2.787 4.213a.199.199 0 00.17.152.2.2 0 00.214-.262c-.557-1.947-1.548-3.21-2.349-3.975 3.779 1.74 6.383 5.64 6.383 10.063v7.01c0 .383.281.707.644.782.581.12 1.011.654.95 1.295-.058.614-.621 1.08-1.262 1.08H2.868c-.64 0-1.204-.466-1.263-1.081-.06-.64.368-1.173.95-1.294a.808.808 0 00.645-.782V19.6c0-4.962 3.344-9.13 7.897-10.4H14.6a.2.2 0 100-.4h-3.163a.4.4 0 00-.051-.2L9.28 2.667C10.44 1.785 12.11 1.2 14 1.2zm7.2 4.398c.307 0 .613.118.848.354.47.47.47 1.227 0 1.696a1.18 1.18 0 01-.699.336l-3.405.357.992-.984 1.415-1.405c.236-.236.542-.354.849-.354zm-.435 8.799a.2.2 0 00-.192.243c.075.37.132.763.171 1.179a.2.2 0 00.354.109.201.201 0 00.045-.147 11.62 11.62 0 00-.18-1.22.2.2 0 00-.198-.164zm-6.574.003c-.1 0-.184.03-.252.09-.069.06-.102.124-.102.197v.408a3.857 3.857 0 00-.917.184c-.283.095-.55.233-.8.415-.25.181-.449.43-.594.743a2.546 2.546 0 00-.22 1.086 2.494 2.494 0 00.527 1.553c.132.16.333.316.602.472.269.155.49.265.662.329l.74.273v3.64a3.007 3.007 0 01-.967-.198c-.285-.114-.494-.237-.625-.37a6.852 6.852 0 00-.385-.362c-.126-.11-.226-.165-.298-.165-.127 0-.242.069-.346.206a.691.691 0 00-.156.424c0 .318.266.646.8.982.533.337 1.193.509 1.977.517v.474c0 .077.034.147.102.21a.361.361 0 00.252.092.37.37 0 00.246-.093c.073-.062.109-.131.109-.208v-.515c.734-.1 1.317-.377 1.748-.835.43-.457.646-1.08.646-1.87 0-.447-.066-.837-.198-1.17a1.997 1.997 0 00-.584-.822 4.506 4.506 0 00-.735-.506 6.919 6.919 0 00-.876-.376v-3.117a2.83 2.83 0 011.092.265c.336.159.526.238.572.238.147 0 .266-.072.358-.218a.772.772 0 00.139-.408c0-.254-.224-.46-.67-.619a5.22 5.22 0 00-1.491-.279v-.381c0-.072-.037-.138-.11-.197a.38.38 0 00-.246-.089zm-.3 1.706v2.867c-.507-.183-.883-.381-1.132-.596-.248-.214-.372-.536-.372-.964 0-.772.5-1.207 1.503-1.307zm7.092.292a.2.2 0 00-.19.208c.003.132.007.262.007.394a.2.2 0 00.2.203.2.2 0 00.2-.203c0-.14-.004-.274-.008-.406a.202.202 0 00-.13-.184.198.198 0 00-.08-.012zm-6.49 4.011c.437.183.774.407 1.01.672.238.264.356.633.356 1.108 0 .903-.455 1.428-1.367 1.573V20.41z" fill="#fff"/></svg>