<svg width="72" height="74" viewBox="0 0 72 74" fill="none" xmlns="http://www.w3.org/2000/svg"><path d="M10.045 0A1 1 0 009 1v55H1a1 1 0 00-1 1v16a1 1 0 001 1h70a1 1 0 001-1V57a1 1 0 00-1-1h-8V1a1 1 0 00-1.748-.664l-7.295 8.207-8.25-8.25a1 1 0 00-1.414 0L36 8.586 27.707.293a1 1 0 00-1.414 0l-8.25 8.25L10.748.336A1 1 0 0010.045 0zM27 2.414l8.293 8.293a1 1 0 001.414 0L45 2.414l8.293 8.293a1 1 0 001.455-.043L61 3.631V64H11v-6.832a1.003 1.003 0 000-.326V3.63l6.252 7.033a1 1 0 001.455.043L27 2.414zM17.5 20a.5.5 0 100 1h37a.499.499 0 00.194-.964A.5.5 0 0054.5 20h-37zm0 5a.5.5 0 100 1h9a.499.499 0 00.194-.964A.5.5 0 0026.5 25h-9zm0 12a.5.5 0 100 1 .5.5 0 000-1zm3 0a.5.5 0 100 1h22a.499.499 0 00.194-.964A.5.5 0 0042.5 37h-22zm31.853 1a.468.468 0 00-.314.111c-.085.074-.129.155-.129.246v.51a4.82 4.82 0 00-1.138.23 3.692 3.692 0 00-.995.52 2.324 2.324 0 00-.74.928c-.18.392-.271.843-.271 1.357 0 .422.067.801.203 1.137.136.336.286.605.45.805.165.2.415.396.749.59.334.195.608.332.824.412l1.008.41v4.48c-.446-.022-.935-.105-1.29-.248-.354-.143-.614-.296-.776-.46a8.216 8.216 0 00-.479-.454c-.157-.137-.28-.205-.37-.205-.157 0-.3.085-.43.256a.865.865 0 00-.194.53c0 .397.331.808.994 1.228.664.42 1.481.634 2.457.646v.592c0 .096.044.184.129.262a.465.465 0 00.62 0c.09-.078.136-.165.136-.26v-.645c.913-.123 1.637-.47 2.172-1.042.536-.572.803-1.35.803-2.336 0-.56-.08-1.047-.245-1.463a2.507 2.507 0 00-.726-1.028 5.532 5.532 0 00-.914-.632 8.205 8.205 0 00-1.07-.47V40.11c.486.023.92.133 1.337.332.418.2.655.3.711.3.183 0 .331-.092.445-.274.114-.181.172-.35.172-.51 0-.317-.277-.574-.832-.773a6.426 6.426 0 00-1.853-.35v-.477c0-.09-.047-.172-.137-.246a.48.48 0 00-.306-.111zm-.355 2.133L52 43.717c-.629-.227-1.119-.476-1.428-.744-.309-.268-.465-.671-.465-1.207 0-.964.644-1.508 1.891-1.633zM17.5 42a.5.5 0 100 1 .5.5 0 000-1zm3 0a.5.5 0 100 1h22a.499.499 0 00.194-.964A.5.5 0 0042.5 42h-22zm32.313 3.557c.498.22.895.48 1.173.793.295.332.444.793.444 1.386 0 1.097-.547 1.739-1.617 1.942v-4.121zM17.5 47a.5.5 0 100 1 .5.5 0 000-1zm3 0a.5.5 0 100 1h22a.499.499 0 00.194-.964A.5.5 0 0042.5 47h-22zm-3 5a.5.5 0 100 1 .5.5 0 000-1zm3 0a.5.5 0 100 1h22a.499.499 0 00.194-.964A.5.5 0 0042.5 52h-22zM2 58h7v6H7a1 1 0 100 2h58a1 1 0 100-2h-2v-6h7v14H2V58z" fill="url(#paint0_linear_11_260)"/><defs><linearGradient id="paint0_linear_11_260" x1="0" y1="36.999" x2="72" y2="36.999" gradientUnits="userSpaceOnUse"><stop stop-color="#C2E59C"/><stop offset="1" stop-color="#64B3F4"/></linearGradient></defs></svg>