<svg width="32" height="28" viewBox="0 0 32 28" fill="none" xmlns="http://www.w3.org/2000/svg"><path d="M18.792.796a.402.402 0 00-.045.004H14.4a.4.4 0 100 .8h3.434L4.117 15.317a.4.4 0 10.566.566L18.4 2.166V5.6a.398.398 0 00.554.375.4.4 0 00.246-.375V1.25a.4.4 0 00-.408-.454zM24.4.8a.4.4 0 00-.4.4v25.6h-1.6V8.4A.4.4 0 0022 8h-4.8a.4.4 0 00-.4.4v18.4h-1.6v-12a.4.4 0 00-.4-.4H10a.4.4 0 00-.4.4v12H8v-6.4a.4.4 0 00-.4-.4H2.8a.4.4 0 00-.4.4v6.4H1.2a.398.398 0 00-.375.554.4.4 0 00.375.246h29.6a.402.402 0 00.406-.4.401.401 0 00-.406-.4h-1.2V1.2a.4.4 0 00-.4-.4h-4.8zm.4.8h4v25.2h-4V1.6zm.997.797a.2.2 0 00-.197.203v.8a.2.2 0 00.277.187A.2.2 0 0026 3.4v-.8a.201.201 0 00-.125-.189.2.2 0 00-.078-.014zm0 2a.2.2 0 00-.197.203v1.6a.2.2 0 00.277.187A.2.2 0 0026 6.2V4.6a.201.201 0 00-.125-.189.2.2 0 00-.078-.014zm0 2.8a.2.2 0 00-.197.203v18.4a.2.2 0 00.277.187A.2.2 0 0026 25.8V7.4a.201.201 0 00-.125-.189.2.2 0 00-.078-.014zM17.6 8.8h4v18h-4v-18zm.997.797a.2.2 0 00-.197.203v.8a.2.2 0 00.277.187.2.2 0 00.123-.187v-.8a.201.201 0 00-.125-.189.2.2 0 00-.078-.014zm0 2a.2.2 0 00-.197.203v1.6a.2.2 0 00.277.187.2.2 0 00.123-.187v-1.6a.202.202 0 00-.125-.189.2.2 0 00-.078-.014zm0 2.8a.2.2 0 00-.197.203v11.2a.2.2 0 00.277.187.2.2 0 00.123-.187V14.6a.202.202 0 00-.125-.188.2.2 0 00-.078-.015zM10.4 15.2h4v11.6h-4V15.2zm.997.797a.2.2 0 00-.197.203v.8a.2.2 0 00.277.187A.2.2 0 0011.6 17v-.8a.202.202 0 00-.125-.188.2.2 0 00-.078-.015zm0 2a.2.2 0 00-.197.203v7.6a.2.2 0 00.277.187.2.2 0 00.123-.187v-7.6a.202.202 0 00-.125-.188.2.2 0 00-.078-.015zM3.2 20.8h4v6h-4v-6zm.997.797A.2.2 0 004 21.8v.8a.2.2 0 10.4 0v-.8a.2.2 0 00-.203-.203zm0 2A.2.2 0 004 23.8v2.4a.2.2 0 10.4 0v-2.4a.2.2 0 00-.203-.203z" fill="#fff"/></svg>