<svg width="16" height="21" viewBox="0 0 16 21" fill="none" xmlns="http://www.w3.org/2000/svg"><path d="M1.6.4A1.6 1.6 0 000 2v16.8a1.6 1.6 0 001.6 1.6h12.8a1.6 1.6 0 001.6-1.6V6.4a.8.8 0 00-.234-.565l-5.2-5.2A.8.8 0 0010 .4H1.6zm8 1.524L14.477 6.8H10.4a.8.8 0 01-.8-.8V1.924zM7.263 7.84c.434 0 .798.184 1.024.517.183.267.27.611.27 1.052 0 .756-.338 1.943-.865 3.214.255.577.551 1.148.867 1.667.735.005 1.744.072 2.568.348 1.184.397 1.434 1.05 1.434 1.529 0 .688-.56 1.432-1.788 1.432-.908 0-1.92-.92-2.793-2.182-.637.02-1.242.083-1.797.176-1.018 1.665-2.171 2.967-3.05 2.967-.967 0-1.292-.954-1.292-1.39 0-1.37 1.733-2.18 3.648-2.577a21.82 21.82 0 001.014-1.945c-.445-1.105-.72-2.185-.72-2.988 0-.508.104-.92.31-1.228.258-.382.674-.592 1.17-.592zM7.26 8.96c-.174 0-.213.059-.24.098-.044.067-.12.234-.12.603 0 .41.082.89.224 1.402.21-.655.33-1.25.313-1.722-.013-.38-.105-.381-.177-.381zm2.103 6.484c.514.63 1.018 1.036 1.408 1.036.46 0 .667-.157.667-.314 0-.147-.261-.33-.669-.467-.37-.124-.852-.21-1.406-.255zm-4.766.536c-1.012.342-1.639.786-1.639 1.19.001 0 .046.271.172.271.304-.022.858-.602 1.467-1.46z" fill="#fff"/></svg>