<svg width="24" height="32" viewBox="0 0 24 32" fill="none" xmlns="http://www.w3.org/2000/svg"><path d="M14.396.402a2.498 2.498 0 00-1.274.308l-.303.167a1.699 1.699 0 01-1.641 0L10.876.71a2.508 2.508 0 00-3.347.897l-.18.295c-.303.5-.838.81-1.421.822l-.346.008a2.507 2.507 0 00-2.45 2.45l-.008.346a1.7 1.7 0 01-.821 1.421l-.296.18a2.51 2.51 0 00-.897 3.347l.166.303c.282.511.282 1.13 0 1.641l-.166.303a2.508 2.508 0 00.898 3.347l.295.18c.5.303.809.838.821 1.42l.008.347a2.5 2.5 0 001.03 1.966L.826 28.656a.4.4 0 00.456.535l3.539-.745 2.05 2.98a.4.4 0 00.702-.082l3.432-8.924.175-.097a1.7 1.7 0 011.641 0l.173.096 3.433 8.925a.4.4 0 00.703.083l2.049-2.98 3.539.744a.4.4 0 00.455-.535l-3.335-8.67a2.5 2.5 0 001.03-1.968l.009-.346a1.7 1.7 0 01.82-1.421l.296-.18a2.51 2.51 0 00.898-3.348l-.001-.001-.169-.302a1.7 1.7 0 010-1.64l.167-.303a2.51 2.51 0 00-.897-3.348l-.295-.179c-.5-.303-.81-.839-.822-1.422l-.008-.345a2.508 2.508 0 00-2.45-2.45l-.346-.009a1.7 1.7 0 01-1.42-.82l-.18-.296A2.507 2.507 0 0014.395.402zM9.622 1.2a1.694 1.694 0 01.869.213l.3.165c.75.414 1.663.414 2.414 0l.302-.166a1.698 1.698 0 012.278.61l.179.296a2.502 2.502 0 002.089 1.207l.346.008c.918.019 1.65.75 1.668 1.667l.007.345a2.507 2.507 0 001.207 2.09l.296.178a1.697 1.697 0 01.61 2.278l-.166.303a2.502 2.502 0 000 2.413v.002l.17.302c.44.803.172 1.801-.612 2.276l-.296.179a2.502 2.502 0 00-1.207 2.089L20.07 18a1.692 1.692 0 01-.84 1.428.4.4 0 00-.147.08 1.698 1.698 0 01-.68.16H18.4l-.346.007a2.507 2.507 0 00-2.089 1.207l-.179.295a1.697 1.697 0 01-2.278.611l-.302-.166a2.502 2.502 0 00-2.413 0l-.303.166a1.699 1.699 0 01-2.278-.61l-.179-.295a2.502 2.502 0 00-2.089-1.208l-.345-.007a1.703 1.703 0 01-.684-.161.4.4 0 00-.139-.077A1.69 1.69 0 013.931 18l-.008-.346a2.506 2.506 0 00-1.206-2.089l-.296-.18a1.697 1.697 0 01-.611-2.277l.166-.301a2.502 2.502 0 000-2.413l-.166-.303a1.699 1.699 0 01.61-2.278l.295-.179h.001a2.503 2.503 0 001.207-2.089l.007-.346c.019-.918.75-1.65 1.668-1.668l.345-.007a2.507 2.507 0 002.09-1.207l.18-.295v-.001a1.697 1.697 0 011.408-.823zM12 3.2a8.403 8.403 0 00-8.4 8.4c0 4.637 3.763 8.4 8.4 8.4 4.568 0 8.28-3.654 8.39-8.195a.2.2 0 00-.4-.01c-.105 4.33-3.635 7.805-7.99 7.805-4.42 0-8-3.58-8-8a7.997 7.997 0 0111.707-7.086.201.201 0 00.276-.08.2.2 0 00-.09-.274A8.358 8.358 0 0012 3.2zm4.839 1.598a.2.2 0 00-.106.363 8.03 8.03 0 011.597 1.56.2.2 0 00.333-.02.2.2 0 00-.015-.223A8.433 8.433 0 0016.97 4.84a.2.2 0 00-.131-.04zm2.423 2.8a.2.2 0 00-.176.295c.196.373.36.764.497 1.17a.202.202 0 00.099.124.2.2 0 00.28-.25 8.386 8.386 0 00-.522-1.23.2.2 0 00-.178-.11zm-2.718.805a.996.996 0 00-.69.33v.001l-4.227 4.736-2.258-2.71a1.004 1.004 0 00-1.409-.128c-.422.352-.48.986-.128 1.409l3 3.6a1 1 0 00.75.359h.018a1 1 0 00.746-.334l5-5.6c.366-.41.33-1.046-.08-1.412a.996.996 0 00-.722-.25zm.022.397a.597.597 0 01.434.152c.249.222.27.598.048.847l-5 5.6a.602.602 0 01-.448.201h-.01a.599.599 0 01-.451-.216l-3-3.6a.597.597 0 01.077-.845.598.598 0 01.845.077l2.406 2.888a.2.2 0 00.303.005L16.153 9a.598.598 0 01.413-.201zM4.878 20.35c.223.072.46.113.704.118l.346.008a1.7 1.7 0 011.421.82l.18.297c.3.494.746.848 1.251 1.04l-.42 1.095a.2.2 0 10.373.144l.433-1.128c.277.057.563.067.846.029L7.1 30.348l-1.77-2.575a.4.4 0 00-.411-.164l-3.08.648 3.04-7.906zm14.244.002l3.04 7.905-3.08-.648a.4.4 0 00-.412.164l-1.77 2.575-2.913-7.575a2.507 2.507 0 002.485-1.18l.179-.295c.303-.5.838-.81 1.422-.822l.345-.008c.245-.005.48-.046.704-.116zm-.665.845h-.02a.2.2 0 00-.17.275l.924 2.4a.202.202 0 00.181.128.198.198 0 00.188-.119.2.2 0 00.004-.153l-.924-2.4a.199.199 0 00-.183-.131zm-10.227 3.2a.2.2 0 00-.179.131l-.46 1.2a.2.2 0 10.373.144l.46-1.2a.2.2 0 00-.194-.274zm11.611.4h-.02a.2.2 0 00-.17.275l.616 1.6a.2.2 0 00.373-.144l-.615-1.6a.199.199 0 00-.184-.131zm-12.534 2a.2.2 0 00-.178.131l-.308.8a.2.2 0 10.373.144l.308-.8a.2.2 0 00-.195-.274z" fill="#fff"/></svg>