<svg width="28" height="32" viewBox="0 0 28 32" fill="none" xmlns="http://www.w3.org/2000/svg"><path d="M12.6.795C5.867.795.4 6.262.4 12.995c0 .634.05 1.255.144 1.86.006.043.02.085.04.123.28 1.715.9 3.317 1.818 4.713h.001C3.681 21.63 4.4 23.879 4.4 26.194V30.8a.4.4 0 00.8.011v-4.617c0-2.48-.77-4.88-2.129-6.943a11.303 11.303 0 01-1.729-4.517.47.47 0 00-.012-.052 11.416 11.416 0 01-.13-1.687c0-6.301 5.1-11.4 11.4-11.4 5.765 0 10.52 4.273 11.289 9.822.033.24.107.478.228.698l.006.01 2.604 4.381a.513.513 0 01-.237.743l-2.653 1.18a.402.402 0 00-.237.366v3.2c0 1.993-1.607 3.6-3.6 3.6h-5.8a.2.2 0 10-.006.4H17.2V30.8a.4.4 0 00.8.011v-4.416h2c2.425 0 4.4-1.975 4.4-4.4v-2.94l2.415-1.075a1.33 1.33 0 00.599-1.883l-2.596-4.37a1.219 1.219 0 01-.136-.42C23.86 5.366 18.76.794 12.6.794zM10.4 7.6c-.441 0-.8.355-.8.79v.843A1.517 1.517 0 008.433 10.4H7.6a.796.796 0 00-.79.8c0 .441.354.8.79.8h.8v.8h-.8a.796.796 0 00-.79.8c0 .441.354.8.79.8h.8v.8h-.8a.796.796 0 00-.79.8c0 .441.354.8.79.8h.833A1.517 1.517 0 009.6 17.967v.833c0 .436.359.79.8.79.441 0 .8-.354.8-.79V18h.8v.8c0 .436.359.79.8.79.441 0 .8-.354.8-.79V18h.8v.8c0 .436.359.79.8.79.441 0 .8-.354.8-.79v-.833a1.517 1.517 0 001.167-1.167h.842c.436 0 .79-.359.79-.8 0-.441-.354-.8-.79-.8h-.81v-.8h.81c.436 0 .79-.359.79-.8 0-.441-.354-.8-.79-.8h-.81V12h.81c.436 0 .79-.359.79-.8 0-.441-.354-.8-.79-.8h-.842A1.517 1.517 0 0016 9.233V8.39a.796.796 0 00-.8-.791c-.441 0-.8.355-.8.79v.81h-.8v-.81a.796.796 0 00-.8-.79c-.441 0-.8.355-.8.79v.81h-.8v-.81a.796.796 0 00-.8-.79zm0 .4c.22 0 .4.175.4.39v.81H10v-.81c0-.215.18-.39.4-.39zm2.4 0c.22 0 .4.175.4.39v.81h-.8v-.81c0-.215.18-.39.4-.39zm2.4 0c.22 0 .4.175.4.39v.81h-.8v-.81c0-.215.18-.39.4-.39zM9.912 9.6h5.775c.614 0 1.113.5 1.113 1.113v5.775c0 .613-.5 1.112-1.113 1.112H9.912c-.613 0-1.112-.5-1.112-1.113v-5.774c0-.614.5-1.113 1.112-1.113zm.586.8a.9.9 0 00-.898.899v4.603a.9.9 0 00.898.898.2.2 0 000-.4.499.499 0 01-.498-.498v-4.603a.5.5 0 01.498-.499h.702a.2.2 0 000-.4h-.702zm1.502 0a.2.2 0 000 .4h.6a.2.2 0 000-.4H12zm-4.4.4h.8v.8h-.8a.396.396 0 01-.39-.4c0-.22.174-.4.39-.4zm9.6 0h.81c.215 0 .39.18.39.4 0 .22-.175.4-.39.4h-.81v-.8zm-1.4.4a.2.2 0 00-.2.2v.6a.2.2 0 00.4 0v-.6a.2.2 0 00-.2-.2zm-4.6.4a.4.4 0 100 .8.4.4 0 000-.8zm4.6 1a.2.2 0 00-.2.2v3.102a.499.499 0 01-.498.498H12.7a.2.2 0 000 .4h2.402a.9.9 0 00.898-.898V12.8a.2.2 0 00-.2-.2zm-8.2.6h.8v.8h-.8a.396.396 0 01-.39-.4c0-.22.174-.4.39-.4zm9.6 0h.81c.215 0 .39.18.39.4 0 .22-.175.4-.39.4h-.81v-.8zm-2.797 1.6a.4.4 0 100 .8.4.4 0 000-.8zm-6.803.8h.8v.8h-.8a.396.396 0 01-.39-.4c0-.22.174-.4.39-.4zm9.6 0h.81c.215 0 .39.18.39.4 0 .22-.175.4-.39.4h-.81v-.8zM10 18h.8v.8c0 .216-.18.39-.4.39-.22 0-.4-.174-.4-.39V18zm2.4 0h.8v.8c0 .216-.18.39-.4.39-.22 0-.4-.174-.4-.39V18zm2.4 0h.8v.8c0 .216-.18.39-.4.39-.22 0-.4-.174-.4-.39V18zm-2.2 7.595a.2.2 0 10-.006.4h.806a.2.2 0 10.005-.4H12.6z" fill="#fff"/></svg>