<svg width="18" height="18" viewBox="0 0 18 18" fill="none" xmlns="http://www.w3.org/2000/svg"><path d="M16.2.2H1.8A1.6 1.6 0 00.2 1.8v14.4a1.6 1.6 0 001.6 1.6h14.4a1.6 1.6 0 001.6-1.6V1.8A1.6 1.6 0 0016.2.2zm-2.111 11.974l-1.495.02s-.322.064-.744-.227c-.559-.384-1.086-1.384-1.497-1.254-.417.133-.404 1.032-.404 1.032s.003.158-.092.262c-.103.11-.306.1-.306.1h-.67s-1.476.122-2.778-1.235c-1.417-1.479-2.67-4.398-2.67-4.398s-.074-.184.005-.279c.088-.104.328-.107.328-.107l1.6-.008s.15.027.259.107c.089.065.139.188.139.188s.258.656.602 1.25c.668 1.156.979 1.41 1.206 1.286.331-.181.232-1.636.232-1.636s.006-.528-.166-.763c-.135-.183-.388-.237-.498-.251-.09-.012.057-.222.249-.316.288-.14.797-.149 1.397-.143.468.005.604.033.786.078.552.134.365.649.365 1.885 0 .396-.071.953.213 1.136.124.08.424.012 1.172-1.263.356-.605.622-1.315.622-1.315s.058-.127.149-.181c.092-.056.217-.039.217-.039l1.684-.01s.506-.06.588.169c.087.24-.189.8-.876 1.718-1.13 1.507-1.256 1.367-.317 2.24.896.832 1.08 1.237 1.112 1.288.37.617-.412.666-.412.666z" fill="#fff"/></svg>